<svg xmlns="http://www.w3.org/2000/svg" xmlns:xlink="http://www.w3.org/1999/xlink" viewBox="0 0 300 104">
    <g fill="none" fill-rule="evenodd">
        <path fill="#00E7C3" fill-rule="nonzero" d="M18.794 99.1406c1.248 0 2.3437-.249 3.287-.747.9434-.498 1.6846-1.2583 2.2237-2.2808.539-1.0225.8232-2.2954.8525-3.8189.0235-1.3652-.2036-2.5693-.6811-3.6123-.4776-1.043-1.1704-1.8457-2.0786-2.4082-.9082-.5625-1.9688-.8261-3.1817-.791-1.2422.0352-2.3335.2989-3.274.791-.9403.4922-1.6815 1.2349-2.2235 2.228-.542.9932-.8277 2.2398-.857 3.7398-.0234 1.3477.1992 2.543.668 3.586.4687 1.043 1.1558 1.856 2.061 2.439.9053.583 1.9732.8744 3.2036.8744zm.2197-2.083c-.709 0-1.3081-.205-1.7974-.6152-.4892-.4102-.8555-.9727-1.0986-1.6875-.2432-.7149-.3648-1.5205-.3648-2.417 0-1.1016.1494-2.004.4483-2.707.2988-.7032.7031-1.2159 1.2129-1.5381.5097-.3223 1.0898-.4834 1.7402-.4834.6797 0 1.2524.1963 1.7183.5888.4658.3926.8144.9346 1.0459 1.626.2314.6914.3471 1.4854.3471 2.3819 0 1.6289-.2856 2.8447-.857 3.6474-.5712.8028-1.3695 1.2041-2.395 1.2041zm13.289 2.0654c1.9864 0 3.3955-.3662 4.2276-1.0986.832-.7324 1.248-1.7578 1.248-3.0762 0-.5625-.1157-1.0649-.3471-1.5073-.2315-.4424-.5523-.7969-.9624-1.0635-.4102-.2666-.879-.4292-1.4063-.4878.416-.1113.7749-.312 1.0767-.602.3017-.29.5317-.643.6899-1.059.1582-.4161.2373-.8673.2373-1.3536 0-.6797-.1758-1.273-.5273-1.7798-.3516-.5068-.8921-.9009-1.6216-1.1821-.7295-.2813-1.645-.4219-2.7466-.4219-.4453 0-1.0752.0264-1.8897.0791-.5976.0352-1.0166.0527-1.2568.0527l-1.3535-.0087V99h1.415c1.295.082 2.3672.123 3.2168.123zm-.1845-7.8925a27.937 27.937 0 01-.9141-.0176c-.3516-.0117-.6064-.0322-.7646-.0615v-3.498c.0878-.0411.29-.0704.6064-.088.3164-.0175.5918-.0263.8262-.0263.8261 0 1.4546.126 1.8852.3779.4307.252.646.6504.646 1.1953 0 .7559-.1787 1.2979-.5361 1.626-.3574.3281-.9404.4922-1.749.4922zm.2636 5.959c-.416 0-.8159-.0162-1.1997-.0484-.3838-.0322-.6313-.0923-.7426-.1802v-3.7968c.1171-.0176.3837-.0323.7998-.044.416-.0117.7939-.0176 1.1337-.0176.8907 0 1.5425.1568 1.9556.4703.4131.3134.6196.813.6196 1.4985 0 .7676-.2094 1.3125-.6284 1.6348-.419.3222-1.065.4834-1.938.4834zm11.4873 1.9511c.9141 0 1.7183-.145 2.4126-.435.6944-.29 1.232-.7149 1.6128-1.2744.3809-.5596.5713-1.232.5713-2.0171 0-.6856-.1509-1.2745-.4526-1.7666-.3018-.4922-.7031-.9156-1.2041-1.27-.501-.3546-1.1734-.7545-2.0171-1.1998-.6211-.328-1.084-.5932-1.3887-.7954-.3047-.2021-.5346-.4145-.69-.6372-.1552-.2226-.2328-.4892-.2328-.7998 0-.4394.1567-.7778.4702-1.0151.3135-.2373.8247-.356 1.5337-.356.6035 0 1.141.0791 1.6128.2373.4716.1582.9067.3633 1.3051.6153l.457-2.171c-.2929-.1874-.7514-.3632-1.3754-.5273-.624-.164-1.317-.246-2.0786-.246-.8848 0-1.6773.1215-2.3775.3647-.7002.2431-1.2568.6328-1.6699 1.169-.413.536-.6196 1.226-.6196 2.0697 0 .9844.3076 1.8018.9228 2.4522.6153.6504 1.415 1.2187 2.3994 1.705.7383.3633 1.2818.6563 1.6304.879.3487.2226.5962.4438.7427.6635.1465.2198.2197.4878.2197.8042 0 .4688-.1465.813-.4394 1.0328-.293.2197-.7998.3295-1.5205.3295-.6621 0-1.295-.082-1.8985-.246-.6035-.1641-1.1191-.3633-1.5469-.5977l-.3955 2.2412c.1758.1113.4761.2285.901.3516.4247.123.914.227 1.4677.312.5537.085 1.103.1274 1.648.1274zM59.505 99v-2.206h-5.9326v-3.586h4.1132v-2.1182h-4.1132v-3.3222h5.3613V85.623h-8.1563V99h8.7276zm5.0889 0v-5.0537c.58 0 1.1689-.0117 1.7666-.0352.2812 0 .5244.1143.7294.3428.2051.2285.3765.5112.5142.8482.1377.3369.2974.7836.479 1.3403.129.3867.2358.6958.3208.9272.085.2315.1773.4527.2769.6636l.123.2637c.0703.1582.1348.2944.1934.4087.0586.1142.1172.2124.1758.2944h3.1113l-.5537-.9668c-.2344-.4043-.5215-1.0166-.8614-1.837-.3164-.7382-.5903-1.3212-.8217-1.749-.2315-.4277-.5025-.7734-.813-1.037.7265-.2872 1.2788-.7442 1.6567-1.3711.378-.627.567-1.4649.567-2.5137 0-1.459-.4469-2.4976-1.3404-3.1157-.8936-.6182-2.0523-.9273-3.4761-.9273-.5039 0-.9697.0088-1.3975.0264-.4277.0176-.8027.038-1.125.0615-.3867.0352-.7295.0527-1.0283.0527h-1.292V99h2.795zm1.8369-7.0137c-.9317 0-1.544-.0175-1.837-.0527v-4.21c.4454-.1054 1.0167-.1582 1.714-.1582.6562 0 1.163.0923 1.5204.2769.3574.1846.5991.4248.7251.7207s.189.643.189 1.0415c0 .6855-.1875 1.2539-.5625 1.705-.375.4512-.958.6768-1.749.6768zm13.6318 7.0664l4.9219-13.4297h-2.9795l-2.3643 7.3038-.7207 2.5488-.7119-2.5488-2.496-7.3038h-2.9972l4.9747 13.4297h2.373zM87.8145 99l.8876-2.83h4.9131l.8965 2.83h3.0498l-4.9834-13.5176h-2.83L84.8085 99h3.0059zm5.1591-4.8428h-3.6474l1.4326-4.5879.3867-1.3798.378 1.3798 1.4501 4.588zm10.7403 4.9658c1.9863 0 3.3955-.3662 4.2275-1.0986.832-.7324 1.248-1.7578 1.248-3.0762 0-.5625-.1157-1.0649-.3471-1.5073-.2315-.4424-.5523-.7969-.9624-1.0635-.4102-.2666-.879-.4292-1.4063-.4878.416-.1113.775-.312 1.0767-.602.3018-.29.5317-.643.69-1.059.1581-.4161.2372-.8673.2372-1.3536 0-.6797-.1757-1.273-.5273-1.7798-.3516-.5068-.892-.9009-1.6216-1.1821-.7295-.2813-1.645-.4219-2.7466-.4219-.4453 0-1.0752.0264-1.8896.0791-.5977.0352-1.0166.0527-1.2569.0527l-1.3535-.0087V99h1.415c1.295.082 2.3673.123 3.2169.123zm-.1846-7.8925a27.937 27.937 0 01-.914-.0176c-.3516-.0117-.6065-.0322-.7647-.0615v-3.498c.0879-.0411.29-.0704.6064-.088.3164-.0175.5918-.0263.8262-.0263.8262 0 1.4546.126 1.8853.3779.4306.252.646.6504.646 1.1953 0 .7559-.1788 1.2979-.5362 1.626-.3574.3281-.9404.4922-1.749.4922zm.2637 5.959c-.416 0-.816-.0162-1.1997-.0484-.3838-.0322-.6314-.0923-.7427-.1802v-3.7968c.1172-.0176.3838-.0323.7998-.044.416-.0117.794-.0176 1.1338-.0176.8906 0 1.5425.1568 1.9555.4703.4131.3134.6197.813.6197 1.4985 0 .7676-.2095 1.3125-.6284 1.6348-.419.3222-1.065.4834-1.938.4834zM119.1914 99v-2.127h-4.8164v-11.25h-2.795V99h7.6114zm10.96 0v-2.206h-5.9326v-3.586h4.1132v-2.1182h-4.1132v-3.3222h5.3613V85.623h-8.1563V99h8.7276zM10.6765 84.7181l-3.4282-1.3567L.3235 98.282l3.4282 1.3567z"></path>
        <path fill="#00E7C3" d="M250.1861 52.4444l12.316 12.5804-6.452 6.5902-.7795.7666c-11.7685 11.7113-15.1202 21.4376-10.055 29.179-9.9342-2.2803-15.2232-7.6715-15.867-16.1735-.6287-8.302 5.7973-18.784 19.278-31.446l.9868-.9192.5727-.5775zM241.3981 0c-3.632 7.0897-.633 14.816 8.9968 23.1793l15.5225 13.4037 8.281-8.3495.3569-.3648c8.5976-8.8635 10.8952-16.6586 6.8929-23.3855l.4458.1348c9.5836 2.9561 14.169 8.2109 13.7563 15.7644l-.023.355c-.568 7.6-6.1098 16.7446-16.6253 27.4338l.223-.2273c13.7659 11.2786 20.621 20.97 20.5658 29.0744-.0595 8.5269-5.0383 14.2794-14.9372 17.2575 4.688-8.2568.3353-17.9587-13.0582-29.1057l-25.4033-22.2258c-11.2314-9.8815-17.3193-18.5743-18.2639-26.0784-.9593-7.6213 3.464-13.2433 13.27-16.8659z"></path>
        <g fill="#000" fill-rule="nonzero">
            <path d="M44.493 38.8459c2.5366-.0957 4.6783.2569 6.4252 1.0576 1.747.8007 3.1229 2.0974 4.128 3.89 1.6033-1.2428 3.6852-2.3782 6.2457-3.406s5.1689-1.5416 7.8251-1.5416c2.8716 0 5.2706.5138 7.197 1.5416 1.9263 1.0278 3.392 2.707 4.397 5.0374 1.0051 2.3304 1.5077 5.4317 1.5077 9.3038v25.7065H71.0194V57.1667l-.002-.4474c-.0194-2.056-.1743-3.6697-.4646-4.841-.311-1.2548-.8675-2.163-1.6691-2.7247-.8017-.5617-1.9683-.8426-3.4998-.8426-1.388 0-2.8536.2868-4.3971.8605-1.5435.5736-2.8537 1.2907-3.9305 2.1512.0957 1.0516.1436 2.3065.1436 3.7645v25.348H46.0006V57.2025l-.0021-.4428c-.0201-2.036-.181-3.6452-.4825-4.8275-.323-1.2668-.8854-2.187-1.687-2.7607-.8017-.5737-1.9443-.8605-3.428-.8605-1.1726 0-2.5725.263-4.1997.7888-1.6273.5258-3.0272 1.3026-4.1997 2.3304v29.005H20.8023V39.5629h10.1583l.2154 4.374.3882-.285c1.582-1.1328 3.5105-2.1791 5.7857-3.1389 2.4648-1.0397 4.8458-1.5954 7.1431-1.6671zm69.341 0c2.5367-.0957 4.6784.2569 6.4253 1.0576 1.7469.8007 3.1228 2.0974 4.128 3.89 1.6032-1.2428 3.6851-2.3782 6.2456-3.406 2.5605-1.0278 5.169-1.5416 7.8251-1.5416 2.8716 0 5.2706.5138 7.197 1.5416 1.9264 1.0278 3.392 2.707 4.3971 5.0374s1.5076 5.4317 1.5076 9.3038v25.7065h-11.1992V57.1667l-.002-.4474c-.0194-2.056-.1743-3.6697-.4647-4.841-.311-1.2548-.8674-2.163-1.669-2.7247-.8017-.5617-1.9683-.8426-3.4998-.8426-1.388 0-2.8537.2868-4.3972.8605-1.5435.5736-2.8536 1.2907-3.9305 2.1512.0957 1.0516.1436 2.3065.1436 3.7645v25.348h-11.1992V57.2025l-.0022-.4428c-.02-2.036-.1809-3.6452-.4824-4.8275-.323-1.2668-.8854-2.187-1.687-2.7607-.8017-.5737-1.9444-.8605-3.428-.8605-1.1726 0-2.5725.263-4.1998.7888-1.6272.5258-3.0271 1.3026-4.1997 2.3304v29.005H90.1434V39.5629h10.1583l.2153 4.374.3883-.285c1.582-1.1328 3.5105-2.1791 5.7857-3.1389 2.4648-1.0397 4.8458-1.5954 7.143-1.6671zm106.778-.0153c1.5875 0 2.6744.1675 3.2605.5025v10.805l-.2875-.15c-.4901-.241-1.0354-.4363-1.6359-.5859-.7205-.1795-1.7524-.2692-3.0957-.2692-3.517 0-6.619 1.2325-9.3056 3.6974v27.6048h-11.4305V39.5126h10.1482l.513 5.6.1739-.286c.6045-.9494 1.4563-1.8592 2.5554-2.7294 1.209-.9573 2.6134-1.741 4.2132-2.3513 1.5998-.6102 3.23-.9153 4.891-.9153zm-43.1028-.3715c2.9539 0 5.622.5325 8.004 1.5974 2.3823 1.065 4.294 2.7808 5.7352 5.1474 1.4412 2.3666 2.1856 5.4076 2.2333 9.1232l-.0057 1.189c-.0252 2.5582-.1342 4.556-.327 5.9933l-.0604.4144h-24.0838l.0243.3309c.2613 3.1707 1.3074 5.5454 3.138 7.1239 1.8939 1.633 4.4607 2.4494 7.7004 2.4494 1.5485 0 3.4244-.207 5.628-.6212 2.0875-.3924 3.6458-.8538 4.675-1.3842l.1667-.089 1.8224 6.2833-.196.1538c-1.4026 1.0689-3.4455 1.976-6.1287 2.7216-2.811.781-5.741 1.1714-8.7902 1.1714-4.0974 0-7.5872-.8283-10.4697-2.4849-2.8824-1.6566-5.062-4.0528-6.539-7.1885-1.477-3.1357-2.2155-6.8927-2.2155-11.2709 0-3.9759.7742-7.5257 2.3227-10.6496 1.5484-3.124 3.8055-5.5734 6.7713-7.3483 2.9658-1.775 6.4974-2.6624 10.5947-2.6624zM12.8776 39.821v39.6235H.9906V39.8211h11.887zm163.536 6.5627c-2.1753 0-3.9074.751-5.196 2.253-1.2427 1.4484-2.0622 3.872-2.4583 7.2712l-.0423.3816h13.8327c.0237-.3724.0355-.9185.0355-1.6385 0-2.7061-.4847-4.7605-1.4542-6.1633-.9695-1.4027-2.542-2.104-4.7173-2.104zM7.2818 21c2.0004 0 3.5982.5257 4.7935 1.5772 1.1953 1.0515 1.793 2.4073 1.793 4.0675 0 1.1068-.3354 2.1416-1.0063 3.1046-.6708.9629-1.5612 1.7266-2.6711 2.291-1.11.5645-2.2992.8467-3.5677.8467-1.2441 0-2.3663-.2435-3.3664-.7305-1.0002-.487-1.793-1.162-2.3785-2.0254C.2927 29.2678 0 28.2938 0 27.2091c0-1.1067.3415-2.136 1.0246-3.088.683-.9518 1.5856-1.71 2.7077-2.2744C4.8545 21.2822 6.0376 21 7.2817 21z"></path>
            <path d="M44.493 38.8459c2.5366-.0957 4.6783.2569 6.4252 1.0576 1.747.8007 3.1229 2.0974 4.128 3.89 1.6033-1.2428 3.6852-2.3782 6.2457-3.406s5.1689-1.5416 7.8251-1.5416c2.8716 0 5.2706.5138 7.197 1.5416 1.9263 1.0278 3.392 2.707 4.397 5.0374 1.0051 2.3304 1.5077 5.4317 1.5077 9.3038v25.7065H71.0194V57.1667l-.002-.4474c-.0194-2.056-.1743-3.6697-.4646-4.841-.311-1.2548-.8675-2.163-1.6691-2.7247-.8017-.5617-1.9683-.8426-3.4998-.8426-1.388 0-2.8536.2868-4.3971.8605-1.5435.5736-2.8537 1.2907-3.9305 2.1512.0957 1.0516.1436 2.3065.1436 3.7645v25.348H46.0006V57.2025l-.0021-.4428c-.0201-2.036-.181-3.6452-.4825-4.8275-.323-1.2668-.8854-2.187-1.687-2.7607-.8017-.5737-1.9443-.8605-3.428-.8605-1.1726 0-2.5725.263-4.1997.7888-1.6273.5258-3.0272 1.3026-4.1997 2.3304v29.005H20.8023V39.5629h10.1583l.2154 4.374.3882-.285c1.582-1.1328 3.5105-2.1791 5.7857-3.1389 2.4648-1.0397 4.8458-1.5954 7.1431-1.6671zm69.341 0c2.5367-.0957 4.6784.2569 6.4253 1.0576 1.7469.8007 3.1228 2.0974 4.128 3.89 1.6032-1.2428 3.6851-2.3782 6.2456-3.406 2.5605-1.0278 5.169-1.5416 7.8251-1.5416 2.8716 0 5.2706.5138 7.197 1.5416 1.9264 1.0278 3.392 2.707 4.3971 5.0374s1.5076 5.4317 1.5076 9.3038v25.7065h-11.1992V57.1667l-.002-.4474c-.0194-2.056-.1743-3.6697-.4647-4.841-.311-1.2548-.8674-2.163-1.669-2.7247-.8017-.5617-1.9683-.8426-3.4998-.8426-1.388 0-2.8537.2868-4.3972.8605-1.5435.5736-2.8536 1.2907-3.9305 2.1512.0957 1.0516.1436 2.3065.1436 3.7645v25.348h-11.1992V57.2025l-.0022-.4428c-.02-2.036-.1809-3.6452-.4824-4.8275-.323-1.2668-.8854-2.187-1.687-2.7607-.8017-.5737-1.9444-.8605-3.428-.8605-1.1726 0-2.5725.263-4.1998.7888-1.6272.5258-3.0271 1.3026-4.1997 2.3304v29.005H90.1434V39.5629h10.1583l.2153 4.374.3883-.285c1.582-1.1328 3.5105-2.1791 5.7857-3.1389 2.4648-1.0397 4.8458-1.5954 7.143-1.6671zm106.778-.0153c1.5875 0 2.6744.1675 3.2605.5025v10.805l-.2875-.15c-.4901-.241-1.0354-.4363-1.6359-.5859-.7205-.1795-1.7524-.2692-3.0957-.2692-3.517 0-6.619 1.2325-9.3056 3.6974v27.6048h-11.4305V39.5126h10.1482l.513 5.6.1739-.286c.6045-.9494 1.4563-1.8592 2.5554-2.7294 1.209-.9573 2.6134-1.741 4.2132-2.3513 1.5998-.6102 3.23-.9153 4.891-.9153zm-43.1028-.3715c2.9539 0 5.622.5325 8.004 1.5974 2.3823 1.065 4.294 2.7808 5.7352 5.1474 1.4412 2.3666 2.1856 5.4076 2.2333 9.1232l-.0057 1.189c-.0252 2.5582-.1342 4.556-.327 5.9933l-.0604.4144h-24.0838l.0243.3309c.2613 3.1707 1.3074 5.5454 3.138 7.1239 1.8939 1.633 4.4607 2.4494 7.7004 2.4494 1.5485 0 3.4244-.207 5.628-.6212 2.0875-.3924 3.6458-.8538 4.675-1.3842l.1667-.089 1.8224 6.2833-.196.1538c-1.4026 1.0689-3.4455 1.976-6.1287 2.7216-2.811.781-5.741 1.1714-8.7902 1.1714-4.0974 0-7.5872-.8283-10.4697-2.4849-2.8824-1.6566-5.062-4.0528-6.539-7.1885-1.477-3.1357-2.2155-6.8927-2.2155-11.2709 0-3.9759.7742-7.5257 2.3227-10.6496 1.5484-3.124 3.8055-5.5734 6.7713-7.3483 2.9658-1.775 6.4974-2.6624 10.5947-2.6624zM12.8776 39.821v39.6235H.9906V39.8211h11.887zm163.536 6.5627c-2.1753 0-3.9074.751-5.196 2.253-1.2427 1.4484-2.0622 3.872-2.4583 7.2712l-.0423.3816h13.8327c.0237-.3724.0355-.9185.0355-1.6385 0-2.7061-.4847-4.7605-1.4542-6.1633-.9695-1.4027-2.542-2.104-4.7173-2.104zM7.2818 21c2.0004 0 3.5982.5257 4.7935 1.5772 1.1953 1.0515 1.793 2.4073 1.793 4.0675 0 1.1068-.3354 2.1416-1.0063 3.1046-.6708.9629-1.5612 1.7266-2.6711 2.291-1.11.5645-2.2992.8467-3.5677.8467-1.2441 0-2.3663-.2435-3.3664-.7305-1.0002-.487-1.793-1.162-2.3785-2.0254C.2927 29.2678 0 28.2938 0 27.2091c0-1.1067.3415-2.136 1.0246-3.088.683-.9518 1.5856-1.71 2.7077-2.2744C4.8545 21.2822 6.0376 21 7.2817 21z"></path>
        </g>
    </g>
</svg>